Coordinates
version=1
nRows=14
nColumns=36
inDegrees=yes

Units are S.I. units (second, meters, Newtons, ...)
If the header above contains a line with 'inDegrees', this indicates whether rotational values are in degrees (yes) or radians (no).

endheader
time	pelvis_tilt	pelvis_list	pelvis_rotation	pelvis_tx	pelvis_ty	pelvis_tz	hip_flexion_r	hip_adduction_r	hip_rotation_r	knee_angle_r	knee_angle_r_beta	ankle_angle_r	subtalar_angle_r	mtp_angle_r	hip_flexion_l	hip_adduction_l	hip_rotation_l	knee_angle_l	knee_angle_l_beta	ankle_angle_l	subtalar_angle_l	mtp_angle_l	lumbar_extension	lumbar_bending	lumbar_rotation	arm_flex_r	arm_add_r	arm_rot_r	elbow_flex_r	pro_sup_r	arm_flex_l	arm_add_l	arm_rot_l	elbow_flex_l	pro_sup_l
      2.46666670	    -35.65880820	      4.70667084	    -10.82932220	      0.75939671	      0.67925785	     -0.16241753	     83.05065399	     -4.36663350	     -0.03137919	     87.47182326	      1.52667132	     35.00314251	    -11.48708554	     -7.49999987	     85.48906584	    -13.29171340	      5.38235746	     90.26582985	      1.57543593	     36.40758131	      3.30760161	     -7.49999987	    -20.87697436	      2.16370645	     -8.48670956	     18.91355217	    -43.34395449	    -13.18613732	    105.16535400	     71.48137730	      8.44375942	    -60.24430499	    -31.51164296	    100.89460588	     77.50041853
      2.48333330	    -35.10741641	      5.25212414	    -10.57217606	      0.76933248	      0.69729855	     -0.16888668	     79.90184831	     -4.70803205	      0.28023935	     84.15265310	      1.46874087	     33.16261842	    -12.83129379	     -7.49999987	     82.16957886	    -12.08383147	      4.55473742	     86.98051110	      1.51809630	     34.97482856	      1.72181393	     -7.49999987	    -17.98523548	      0.84783708	     -8.21449176	     14.56653215	    -47.23772004	    -22.67671502	     94.33016891	     70.73654021	      1.76825350	    -60.73053864	    -35.51825325	     89.18117300	     75.59419142
      2.50000000	    -33.82964785	      5.70235044	    -10.67753251	      0.78581719	      0.72460946	     -0.15992927	     75.31258664	     -4.86457482	      0.52616098	     79.85553945	      1.39374209	     31.13918327	    -13.95218970	     -7.49999987	     76.95467920	    -11.16277197	      3.61190830	     82.08370245	      1.43263087	     32.93181705	     -0.27947597	     -7.49999987	    -16.52134442	      0.09911186	    -10.08173787	      9.82104309	    -48.48163313	    -34.01739836	     81.18199584	     96.14807809	    -13.97214433	    -57.42003568	    -51.20210650	     77.55671832	     83.62269614
      2.51666670	    -32.60211756	      6.09899300	    -11.07505669	      0.80029633	      0.74724061	     -0.16180388	     70.51689279	     -5.18162447	      0.53984840	     74.72249756	      1.30415361	     28.61367088	    -15.14562962	     -7.49999987	     71.72604746	    -10.50873971	      2.53962969	     76.78991468	      1.34023684	     30.92497179	     -1.65775402	     -7.49999987	    -14.17607842	     -0.51490239	    -10.41144261	      3.11224520	    -51.50661525	    -45.62497299	     65.78913190	     90.78630086	    -22.77670429	    -53.51498795	    -58.14289930	     61.17965579	     79.92225212
      2.53333330	    -31.20992184	      6.50887584	    -11.28056674	      0.80687113	      0.77553223	     -0.16200343	     65.45769015	     -5.67998121	      0.44225998	     68.58496869	      1.19703352	     25.60520726	    -16.24004680	     -7.49999987	     66.31166696	     -9.49073489	      1.60262756	     70.92584378	      1.23788950	     27.84205420	     -3.84817021	     -7.49999987	    -12.50314481	     -1.64039847	    -10.20194752	     -3.66334901	    -54.86391623	    -54.54666507	     49.81051325	     91.47185033	    -29.06777209	    -49.07876566	    -66.92921896	     47.17514138	     79.18242818
      2.55000000	    -29.66917909	      6.38722663	    -11.62897379	      0.81240462	      0.79769690	     -0.15700242	     60.53320489	     -5.74962980	     -0.24208406	     62.84438487	      1.09684143	     22.70272787	    -16.71513339	     -7.49999987	     61.08444971	     -9.04759999	      1.13064148	     65.34327540	      1.14045530	     25.13131634	     -5.47920816	     -7.49999987	    -10.11451326	     -2.52926250	     -8.88057259	    -15.15173742	    -58.63258688	    -67.07681489	     37.87596261	    106.00910155	    -37.20219620	    -46.25531726	    -75.32383719	     37.36269543	     86.97155806
      2.56666670	    -28.45040539	      6.23724393	    -11.81411428	      0.81314713	      0.82380506	     -0.15641993	     56.51137728	     -5.75743112	     -1.03294692	     57.27391313	      0.99961836	     19.49834257	    -17.07566738	     -7.49999987	     57.07578662	     -8.77517715	      0.67602373	     60.29891178	      1.05241455	     21.96069500	     -6.98104428	     -7.49999987	     -8.46647436	     -3.37342232	     -7.12552157	    -30.43667436	    -60.54548182	    -78.75446326	     28.63518945	    103.99217011	    -46.62196256	    -42.93286898	    -82.74669157	     35.22468936	     85.84593751
      2.58333330	    -26.70849499	      5.91331948	    -12.06937518	      0.82697556	      0.85033428	     -0.15202470	     51.12387242	     -5.75916047	     -1.95230912	     51.09718259	      0.89181407	     16.71953293	    -16.56465888	     -7.49999987	     51.92284231	     -8.57024382	      0.31048187	     54.80230517	      0.95648066	     18.11003506	     -8.59299995	     -7.49999987	     -7.42221045	     -3.51940470	     -7.37614226	    -39.22075146	    -60.44958680	    -85.37019600	     23.47355549	    100.59818704	    -55.01225230	    -38.28858341	    -89.46816270	     33.96856210	     83.78863301
      2.60000000	    -24.40307843	      5.09617322	    -12.45998432	      0.83906638	      0.89199263	     -0.14272558	     42.70563263	     -5.39076988	     -4.01805685	     40.86915344	      0.71330129	     12.25902241	    -14.80224833	     -7.49999987	     44.26989109	     -8.90462667	     -0.31596520	     45.63449430	      0.79647218	     12.30733369	     -9.22095839	     -7.49999987	     -7.51922343	     -3.53209409	     -8.91920272	    -41.95536519	    -67.53999930	    -99.00367668	      6.42219231	    103.43004102	    -64.45500922	    -36.54087075	    -88.24480716	     27.07915812	     86.18437686
      2.61666670	    -22.34021128	      4.53446025	    -12.85248805	      0.85453917	      0.92013725	     -0.13385541	     34.41008337	     -4.76352380	     -5.86958397	     29.99733374	      0.52355224	      7.34486167	    -12.28884586	     -7.49999987	     36.39041848	     -9.30715949	     -1.95566460	     35.34352319	      0.61686085	      6.14042659	     -8.73949742	     -7.49999987	     -7.26326019	     -3.52186733	     -6.46404080	    -57.53084732	    -66.05436889	   -129.73186986	      1.97642341	    102.40964717	    -69.61581788	    -33.61326780	    -90.65830055	     28.32918307	     86.63020228
      2.63333330	    -20.55557020	      4.52230591	    -13.53199555	      0.85988477	      0.95664385	     -0.12834093	     27.28288019	     -4.16420101	     -7.59920867	     19.63208899	      0.34264459	      1.23460265	     -8.86765620	     -7.49999987	     30.07960186	     -9.56850906	     -4.17761576	     26.43129260	      0.46131308	     -1.24732552	     -6.98209836	     -7.49999987	     -6.42943233	     -4.60684320	     -4.14587355	    -64.09372182	    -61.42037033	   -138.41867557	      1.79093455	     97.52092087	    -73.53449909	    -29.77342301	    -95.17586556	     31.41535149	     85.42813005
      2.65000000	    -18.69147371	      4.49773863	    -14.41685217	      0.87825102	      0.99134178	     -0.12978195	     20.22924715	     -3.80881883	     -9.59781352	      9.57369877	      0.16709257	     -6.76143411	     -4.78312479	     -7.49999987	     22.09073048	     -9.02852828	     -7.01328344	     15.06461421	      0.26292712	     -8.05538651	     -3.16764464	     -7.49999987	     -5.74277856	     -5.54708547	     -2.46139156	    -64.95001616	    -57.50329404	   -139.52871599	      1.65840707	     94.84515082	    -75.42578322	    -24.04455528	    -99.12219159	     38.04576464	     84.99139449
      2.66666670	    -18.09418796	      4.75853311	    -15.15778717	      0.89574503	      1.03319390	     -0.12685635	     16.66207363	     -3.61241925	    -10.82258694	      3.44119684	      0.06006022	    -16.01473995	     -3.35811801	     -7.49999987	     17.12870344	     -8.16351797	     -8.98165725	      7.23415457	      0.12625982	    -13.98955491	     -0.09856755	     -7.49999987	     -3.54278873	     -5.95186746	     -0.43509029	    -64.07546167	    -52.11948847	   -138.15631035	      2.06780540	     93.36564634	    -73.92015282	    -19.48565710	   -103.54639288	     44.10248400	     85.29649801
      2.68333330	    -17.83810217	      5.04880883	    -15.65861004	      0.90192498	      1.07555656	     -0.12674056	     14.96398869	     -3.77691527	    -11.87240012	      0.58071754	      0.01013543	    -22.26909021	     -2.76733894	     -7.49999987	     14.34886188	     -7.14808242	    -10.26680278	      2.83890068	      0.04954816	    -18.81522261	      1.31163938	     -7.49999987	     -1.69423470	     -5.78670293	      1.21054975	    -61.50159396	    -45.30242283	   -136.24020811	      3.67569318	     92.68157484	    -70.81660087	    -15.49401364	   -103.36643886	     49.28724353	     85.38545669
